PathFileType	4	(X/Y/Z)	/Users/itak/Documents/Research/Walk-IL/dataset/trc/00532_00183.trc
DataRate	CameraRate	NumFrames	NumMarkers	Units	OrigDataRate	OrigDataStartFrame	OrigNumFrames
100.000000	100.000000	4	53	mm	100.000000	123	495
Frame#	Time	RPSI			LPSI			L3			STRN			T10			C7			CLAV			RBAK			LBAK			LSHO			LUPA			LAEL			LAOL			LWTS			LWPS			LFRA			LIFD			LHPS			LHTS			RSHO			RUPA			RAEL			RAOL			RWTS			RWPS			RFRA			RIFD			RHTS			RHPS			RBHD			LFHD			RFHD			LBHD			LHIP			RHIP			RASI			LASI			LKNE			LTHI			LANK			LTIP			LTOE			LMT1			LMT5			LHEE			RKNE			RTHI			RANK			RTIP			RTOE			RMT1			RMT5			RHEE			
		X1	Y1	Z1	X2	Y2	Z2	X3	Y3	Z3	X4	Y4	Z4	X5	Y5	Z5	X6	Y6	Z6	X7	Y7	Z7	X8	Y8	Z8	X9	Y9	Z9	X10	Y10	Z10	X11	Y11	Z11	X12	Y12	Z12	X13	Y13	Z13	X14	Y14	Z14	X15	Y15	Z15	X16	Y16	Z16	X17	Y17	Z17	X18	Y18	Z18	X19	Y19	Z19	X20	Y20	Z20	X21	Y21	Z21	X22	Y22	Z22	X23	Y23	Z23	X24	Y24	Z24	X25	Y25	Z25	X26	Y26	Z26	X27	Y27	Z27	X28	Y28	Z28	X29	Y29	Z29	X30	Y30	Z30	X31	Y31	Z31	X32	Y32	Z32	X33	Y33	Z33	X34	Y34	Z34	X35	Y35	Z35	X36	Y36	Z36	X37	Y37	Z37	X38	Y38	Z38	X39	Y39	Z39	X40	Y40	Z40	X41	Y41	Z41	X42	Y42	Z42	X43	Y43	Z43	X44	Y44	Z44	X45	Y45	Z45	X46	Y46	Z46	X47	Y47	Z47	X48	Y48	Z48	X49	Y49	Z49	X50	Y50	Z50	X51	Y51	Z51	X52	Y52	Z52	X53	Y53	Z53	

124	1.23	-1123.201904296875	965.6661376953125	-450.9859924316406	-1057.384765625	966.6661376953125	-555.8634643554688	-1086.287475585938	1041.088256835938	-507.9983520507812	-879.3255004882812	1189.859130859375	-398.5496826171875	-1091.88818359375	1146.800415039062	-504.458984375	-1041.847778320312	1372.873657226562	-471.1523132324219	-907.2279663085938	1286.814453125	-409.702392578125	-1128.750366210938	1253.58349609375	-421.4228210449219	-1029.0517578125	1322.331909179688	-562.2250366210938	-910.1779174804688	1364.604736328125	-586.4187622070312	-901.2306518554688	1240.932739257812	-653.1390380859375	-891.1419067382812	1033.030639648438	-687.8045043945312	-983.8665771484375	1024.889404296875	-651.8825073242188	-831.55078125	837.6680297851562	-646.9774169921875	-900.99853515625	808.1947631835938	-703.1802978515625	-880.6854248046875	947.0968627929688	-691.8245849609375	-839.0924072265625	679.833251953125	-648.3305053710938	-882.3648071289062	754.8543701171875	-697.535400390625	-822.7546997070312	760.475341796875	-668.81005859375	-1057.932495117188	1361.514770507812	-314.326416015625	-1104.371826171875	1295.218383789062	-276.3159484863281	-1148.78076171875	1029.470825195312	-253.933837890625	-1173.820068359375	1019.668823242188	-314.8169250488281	-1066.452270507812	823.5603637695312	-228.2863464355469	-1154.48095703125	805.098876953125	-241.7434844970703	-1153.57861328125	975.0867919921875	-248.4935607910156	-1072.917236328125	663.4432373046875	-228.6275329589844	-1073.908813476562	730.0648193359375	-203.1328277587891	-1139.310180664062	730.4271240234375	-230.0368804931641	-1043.504272460938	1509.101684570312	-361.3636779785156	-892.697509765625	1600.905151367188	-456.5484313964844	-932.18896484375	1587.024169921875	-336.0939025878906	-1007.036010742188	1520.160766601562	-515.886474609375	-901.5673828125	887.7915649414062	-616.1907958984375	-1094.974243164062	865.7330322265625	-288.7672424316406	-977.9271850585938	911.7574462890625	-299.2923583984375	-856.1318359375	919.00146484375	-508.4504699707031	-944.5810546875	463.7549743652344	-567.7825927734375	-907.3114624023438	621.1334838867188	-584.5938720703125	-1076.495483398438	48.42853927612305	-583.658935546875	-985.3145141601562	313.9760131835938	-577.8057250976562	-927.568115234375	42.74645233154297	-442.079833984375	-1010.997192382812	45.44313812255859	-446.4129028320312	-976.447998046875	45.16672134399414	-541.2984619140625	-1146.751953125	46.05228042602539	-549.4172973632812	-973.753662109375	493.835205078125	-280.2330932617188	-1044.006713867188	741.8258666992188	-267.6555480957031	-1149.296752929688	106.0263900756836	-355.2899475097656	-992.2601928710938	354.0989990234375	-287.8855285644531	-967.1163330078125	50.53119277954102	-299.2151184082031	-1001.152587890625	60.13071441650391	-363.3418579101562	-1065.530395507812	70.92752075195312	-290.6828308105469	-1171.99365234375	110.9053344726562	-421.7708435058594	
125	1.24	-1121.376586914062	965.7811279296875	-450.6921997070312	-1055.58935546875	966.700439453125	-555.587646484375	-1083.995727539062	1041.428100585938	-507.7981872558594	-876.8116455078125	1189.5244140625	-397.8138427734375	-1089.39111328125	1147.224731445312	-504.4023742675781	-1038.7529296875	1373.095947265625	-470.4548950195312	-904.4695434570312	1286.608642578125	-408.7686767578125	-1126.095703125	1253.941528320312	-421.2857055664062	-1025.7216796875	1322.722534179688	-561.6630249023438	-906.7045288085938	1364.770751953125	-585.324951171875	-897.2218017578125	1241.230834960938	-652.2020263671875	-887.1192016601562	1033.38037109375	-687.25244140625	-980.097412109375	1025.267211914062	-652.045654296875	-828.3967895507812	837.6171264648438	-646.6520385742188	-897.2247924804688	808.6571044921875	-703.6459350585938	-876.8170166015625	947.445556640625	-691.517578125	-836.3384399414062	679.8201293945312	-648.9151000976562	-879.4169921875	755.1138305664062	-698.0128784179688	-819.6469116210938	760.549072265625	-668.7973022460938	-1055.33203125	1361.349975585938	-313.6191101074219	-1102.079956054688	1295.064086914062	-276.0351257324219	-1147.578002929688	1029.4248046875	-254.8477478027344	-1172.397583007812	1019.93359375	-315.8673400878906	-1065.587890625	823.3146362304688	-229.6891326904297	-1153.582763671875	804.9595336914062	-243.4070739746094	-1152.526611328125	975.0106811523438	-249.6305389404297	-1072.120483398438	663.1956787109375	-230.6918182373047	-1073.126953125	729.7296142578125	-204.9497985839844	-1138.486328125	730.2293090820312	-231.9482269287109	-1040.618774414062	1508.986206054688	-360.0418090820312	-890.035888671875	1600.955078125	-455.5305480957031	-929.3095703125	1587.03125	-334.9918518066406	-1004.357543945312	1520.090942382812	-514.7025146484375	-900.1727294921875	887.4529418945312	-616.2054443359375	-1092.176391601562	866.5485229492188	-287.8964538574219	-975.696044921875	912.1728515625	-299.4297485351562	-854.1876831054688	918.7047729492188	-508.7117309570312	-944.2387084960938	463.5121459960938	-568.56103515625	-906.6671752929688	620.8884887695312	-585.204345703125	-1076.514404296875	48.39407348632812	-583.7750854492188	-985.4847412109375	313.9323425292969	-578.5322265625	-927.5073852539062	42.9068717956543	-442.0854797363281	-1010.854125976562	45.58610153198242	-446.5635070800781	-976.403564453125	45.16024780273438	-541.45068359375	-1146.761962890625	46.0352783203125	-549.55078125	-966.8704223632812	495.8796691894531	-277.9999084472656	-1040.241333007812	743.1870727539062	-266.5453796386719	-1142.851806640625	108.8621292114258	-353.9581604003906	-985.1012573242188	356.3989562988281	-285.8016357421875	-961.479736328125	52.4801025390625	-296.5444946289062	-994.906005859375	61.95440673828125	-360.8865356445312	-1059.833129882812	73.34754943847656	-288.7618103027344	-1165.01318359375	113.7086868286133	-420.5889587402344	
126	1.25	-1119.452270507812	965.9303588867188	-450.2339477539062	-1053.734130859375	966.7261962890625	-555.176513671875	-1081.60791015625	1041.7431640625	-507.4379577636719	-874.1802368164062	1189.197265625	-397.0230102539062	-1086.8349609375	1147.624267578125	-504.2710876464844	-1035.608642578125	1373.292846679688	-469.6509704589844	-901.6181030273438	1286.404174804688	-407.7803344726562	-1123.370971679688	1254.277221679688	-421.0457763671875	-1022.353942871094	1323.093994140625	-561.0247192382812	-903.2129516601562	1364.936279296875	-584.1826171875	-893.1944580078125	1241.52490234375	-651.2044067382812	-883.0340576171875	1033.713500976562	-686.6288452148438	-976.2413940429688	1025.607055664062	-652.1209716796875	-825.14990234375	837.585205078125	-646.2128295898438	-893.29833984375	809.1520385742188	-703.9896850585938	-872.8638916015625	947.7681274414062	-691.1040649414062	-833.4392700195312	679.8312377929688	-649.3225708007812	-876.2788696289062	755.3118896484375	-698.2714233398438	-816.4230346679688	760.6541137695312	-668.6259765625	-1052.65283203125	1361.157348632812	-312.8213806152344	-1099.701538085938	1294.876220703125	-275.6750793457031	-1146.311645507812	1029.373046875	-255.6837921142578	-1170.900024414062	1020.189819335938	-316.8359985351562	-1064.708984375	823.0458984375	-231.0468139648438	-1152.672607421875	804.815185546875	-245.0279388427734	-1151.427368164062	974.9315185546875	-250.7010498046875	-1071.35595703125	662.931640625	-232.6795806884766	-1072.367797851562	729.38134765625	-206.6986541748047	-1137.674438476562	730.0287475585938	-233.8050537109375	-1037.668701171875	1508.87353515625	-358.6649780273438	-887.2434692382812	1600.9609375	-454.3893737792969	-926.3413696289062	1586.991333007812	-333.78857421875	-1001.571044921875	1520.048950195312	-513.4490966796875	-898.7651977539062	887.0950317382812	-616.1538696289062	-1089.128173828125	867.4028930664062	-286.8099060058594	-973.2798461914062	912.570556640625	-299.4668273925781	-852.1500244140625	918.3844604492188	-508.9202575683594	-943.9193115234375	463.2458190917969	-569.2943725585938	-906.0078125	620.6106567382812	-585.7464599609375	-1076.568359375	48.33557510375977	-583.8839111328125	-985.6356201171875	313.8944702148438	-579.2321166992188	-927.3849487304688	43.07777786254883	-442.0544128417969	-1010.715087890625	45.71319198608398	-446.6992492675781	-976.3533935546875	45.15352249145508	-541.61474609375	-1146.754760742188	46.01597213745117	-549.6929931640625	-960.3208618164062	497.8685913085938	-275.9467468261719	-1036.5224609375	744.5359497070312	-265.3930053710938	-1135.614013671875	110.9766387939453	-352.2068176269531	-977.9786376953125	358.5349731445312	-283.6960144042969	-954.8370361328125	54.51841735839844	-293.2801513671875	-987.6775512695312	63.69734191894531	-357.8922424316406	-1053.209228515625	75.55937194824219	-286.3503112792969	-1157.267822265625	115.5579833984375	-419.0115661621094	
127	1.26	-1117.423217773438	966.1117553710938	-449.6283569335938	-1051.815307617188	966.7437133789062	-554.652099609375	-1079.1201171875	1042.0361328125	-506.9308776855469	-871.4295654296875	1188.878540039062	-396.1767883300781	-1084.22314453125	1147.99560546875	-504.0568237304688	-1032.409057617188	1373.460571289062	-468.7442932128906	-898.6713256835938	1286.197631835938	-406.7412109375	-1120.575927734375	1254.591552734375	-420.7012023925781	-1018.950622558594	1323.442626953125	-560.2991333007812	-899.7027587890625	1365.102294921875	-582.9904174804688	-889.1781616210938	1241.8271484375	-650.1549072265625	-878.9005737304688	1034.041870117188	-685.9393310546875	-972.3169555664062	1025.922729492188	-652.100830078125	-821.8060302734375	837.5814208984375	-645.6530151367188	-889.2246704101562	809.6943359375	-704.2095336914062	-868.8333740234375	948.0782470703125	-690.5823364257812	-830.4053955078125	679.8742065429688	-649.5447387695312	-872.87060546875	755.4624633789062	-698.2938232421875	-813.0784912109375	760.7876586914062	-668.2987060546875	-1049.883178710938	1360.942749023438	-311.9386596679688	-1097.227783203125	1294.66357421875	-275.231201171875	-1144.966918945312	1029.319458007812	-256.4505920410156	-1169.310791015625	1020.446166992188	-317.7331848144531	-1063.820434570312	822.7529296875	-232.3508453369141	-1151.751953125	804.6746826171875	-246.6230773925781	-1150.269653320312	974.8568725585938	-251.71337890625	-1070.646118164062	662.6487426757812	-234.5733184814453	-1071.651489257812	729.0203247070312	-208.3663940429688	-1136.890014648438	729.8341064453125	-235.6117095947266	-1034.650024414062	1508.74853515625	-357.2428283691406	-884.3247680664062	1600.92333984375	-453.1253051757812	-923.2857055664062	1586.894653320312	-332.4867553710938	-998.6756591796875	1520.02490234375	-512.1287231445312	-897.3370361328125	886.7230834960938	-616.0382080078125	-1085.937622070312	868.2777099609375	-285.5890502929688	-970.6998291015625	912.944091796875	-299.3956604003906	-850.0181274414062	918.04296875	-509.05859375	-943.6109619140625	462.9734497070312	-569.9475708007812	-905.3189697265625	620.2909545898438	-586.1959838867188	-1076.656860351562	48.26063919067383	-583.984619140625	-985.7427978515625	313.862060546875	-579.901611328125	-927.1929321289062	43.26784133911133	-441.9937438964844	-1010.591247558594	45.81893539428711	-446.8186950683594	-976.2994995117188	45.14204406738281	-541.7864379882812	-1146.738037109375	45.99998092651367	-549.8341674804688	-954.0789794921875	499.7796936035156	-274.0664367675781	-1032.869018554688	745.8402709960938	-264.228515625	-1127.60400390625	112.349250793457	-350.0233154296875	-970.8787231445312	360.4714965820312	-281.5494384765625	-947.2426147460938	56.53414535522461	-289.3991394042969	-979.4888305664062	65.26373291015625	-354.3317260742188	-1045.697265625	77.47867584228516	-283.4255065917969	-1148.760375976562	116.4544906616211	-417.0184326171875	
